<?xml version="1.0" encoding="UTF-8"?>
<svg width="80px" height="76px" viewBox="0 0 80 76" version="1.1" xmlns="http://www.w3.org/2000/svg" xmlns:xlink="http://www.w3.org/1999/xlink">
    <title>天枢logo-竖版-浅色bg用</title>
    <g id="天枢logo-竖版-浅色bg用" stroke="none" stroke-width="1" fill="none" fill-rule="evenodd">
        <g id="编组-19备份-2" transform="translate(0.000000, 7.000000)">
            <g id="编组-14备份" transform="translate(40.000000, 23.000000) rotate(10.000000) translate(-40.000000, -23.000000) translate(3.000000, 7.000000)" fill-rule="nonzero">
                <g id="编组-13备份-7" transform="translate(24.078384, 15.518138) rotate(1.000000) translate(-24.078384, -15.518138) translate(1.078384, 1.018138)">
                    <path d="M35.881618,-0.536745633 C40.1200165,-0.536745633 44.0899605,1.17465781 46.9882362,4.15153493 C47.5661339,4.74510526 47.5534287,5.69476774 46.9598584,6.27266545 C46.3662881,6.85056316 45.4166256,6.837858 44.8387279,6.24428767 C42.4995408,3.84166169 39.3020482,2.46325437 35.881618,2.46325437 C32.4827165,2.46325437 29.3036598,3.82423652 26.9018124,6.26320738 L1.21451149,29.3956346 C0.598911599,29.9500066 -0.349537987,29.9003715 -0.903909955,29.2847716 C-1.45828192,28.6691717 -1.40864689,27.7207222 -0.793047,27.1663502 L24.8284196,4.09693465 C27.7228078,1.15305193 31.6699297,-0.536745633 35.881618,-0.536745633 Z" id="路径" fill="#2E4FDE"></path>
                    <path d="M35.690809,7.98162718 C38.5882423,7.98162718 41.3107331,9.10811679 43.3490583,11.0853383 C43.7454792,11.4698756 43.7551129,12.1029673 43.3705756,12.4993882 C42.9860384,12.8958091 42.3529467,12.9054427 41.9565257,12.5209055 C40.2877181,10.9021244 38.0630681,9.98162718 35.690809,9.98162718 C33.5198622,9.98162718 31.4704965,10.7516459 29.8786924,12.1088713 L15.7867125,24.9879072 C15.3790376,25.3604922 14.7465119,25.3320462 14.3739269,24.9243713 C14.0013419,24.5166963 14.0297879,23.8841707 14.4374629,23.5115857 L28.5550444,10.6099419 C30.5311193,8.92412262 33.0395229,7.98162718 35.690809,7.98162718 Z" id="路径" fill="#22AC38"></path>
                </g>
                <g id="编组-13备份-8" transform="translate(49.921616, 16.481862) scale(-1, -1) rotate(1.000000) translate(-49.921616, -16.481862) translate(26.921616, 1.981862)">
                    <path d="M35.881618,-0.536745633 C40.1200165,-0.536745633 44.0899605,1.17465781 46.9882362,4.15153493 C47.5661339,4.74510526 47.5534287,5.69476774 46.9598584,6.27266545 C46.3662881,6.85056316 45.4166256,6.837858 44.8387279,6.24428767 C42.4995408,3.84166169 39.3020482,2.46325437 35.881618,2.46325437 C32.4827165,2.46325437 29.3036598,3.82423652 26.9018124,6.26320738 L1.21451149,29.3956346 C0.598911599,29.9500066 -0.349537987,29.9003715 -0.903909955,29.2847716 C-1.45828192,28.6691717 -1.40864689,27.7207222 -0.793047,27.1663502 L24.8284196,4.09693465 C27.7228078,1.15305193 31.6699297,-0.536745633 35.881618,-0.536745633 Z" id="路径" fill="#2E4FDE"></path>
                    <path d="M35.690809,7.98162718 C38.5882423,7.98162718 41.3107331,9.10811679 43.3490583,11.0853383 C43.7454792,11.4698756 43.7551129,12.1029673 43.3705756,12.4993882 C42.9860384,12.8958091 42.3529467,12.9054427 41.9565257,12.5209055 C40.2877181,10.9021244 38.0630681,9.98162718 35.690809,9.98162718 C33.5198622,9.98162718 31.4704965,10.7516459 29.8786924,12.1088713 L17.4351051,23.4813974 C17.0274301,23.8539824 16.3949045,23.8255363 16.0223195,23.4178614 C15.6497345,23.0101864 15.6781805,22.3776608 16.0858554,22.0050758 L28.5550444,10.6099419 C30.5311193,8.92412262 33.0395229,7.98162718 35.690809,7.98162718 Z" id="路径" fill="#22AC38"></path>
                </g>
            </g>
            <circle id="椭圆形" fill="#22AC38" cx="64" cy="16" r="2"></circle>
        </g>
        <g id="编组-20备份-6" transform="translate(6.000000, 53.000000)" fill="#003D69" fill-rule="nonzero">
            <g id="编组-3">
                <g id="编组-2备份-3">
                    <path d="M2.688,13.414 C2.84666667,13.2926667 3.00533333,13.169 3.164,13.043 C3.32266667,12.917 3.48133333,12.784 3.64,12.644 L3.64,12.644 L3.976,13.414 L13.328,13.414 L13.328,12.322 L4.032,12.322 C4.74133333,11.7246667 5.481,11.0526667 6.251,10.306 C7.021,9.55933333 7.78866667,8.76366667 8.554,7.919 C9.31933333,7.07433333 10.059,6.19466667 10.773,5.28 C11.487,4.36533333 12.138,3.43666667 12.726,2.494 L12.726,2.494 L7.644,2.494 C7.616,2.34466667 7.581,2.18833333 7.539,2.025 C7.497,1.86166667 7.45733333,1.703 7.42,1.549 C7.38266667,1.395 7.34766667,1.25033333 7.315,1.115 C7.28233333,0.979666667 7.252,0.87 7.224,0.786 L7.224,0.786 L5.824,0.786 C5.84266667,0.87 5.86833333,0.979666667 5.901,1.115 C5.93366667,1.25033333 5.96866667,1.395 6.006,1.549 C6.04333333,1.703 6.07833333,1.86166667 6.111,2.025 C6.14366667,2.18833333 6.174,2.34466667 6.202,2.494 L6.202,2.494 L1.148,2.494 L1.148,3.6 L10.444,3.6 C10.08,4.11333333 9.66466667,4.65233333 9.198,5.217 C8.73133333,5.78166667 8.22733333,6.36033333 7.686,6.953 C7.14466667,7.54566667 6.58,8.13833333 5.992,8.731 C5.404,9.32366667 4.809,9.89766667 4.207,10.453 C3.605,11.0083333 3.00533333,11.538 2.408,12.042 C1.81066667,12.546 1.23666667,13.0033333 0.686,13.414 L0.686,13.414 L2.688,13.414 Z M21.8786668,3.796 C21.5426668,3.21733333 21.2253335,2.704 20.9266668,2.256 C20.6280002,1.808 20.3153335,1.36 19.9886668,0.912 L19.9886668,0.912 L18.5886668,0.912 C18.9433335,1.416 19.2676668,1.899 19.5616668,2.361 C19.8556668,2.823 20.1520002,3.30133333 20.4506668,3.796 L20.4506668,3.796 L21.8786668,3.796 Z M31.2446668,13.414 L31.2446668,12.294 L27.1846668,12.294 L27.1846668,2.536 L30.9646668,2.536 L30.9646668,1.402 L22.1586668,1.402 L22.1586668,2.536 L25.9106668,2.536 L25.9106668,12.294 L21.9206668,12.294 L21.9206668,13.414 L31.2446668,13.414 Z M22.0046668,7.114 C21.6406668,6.50733333 21.2930002,5.96833333 20.9616668,5.497 C20.6303335,5.02566667 20.3013335,4.58466667 19.9746668,4.174 L19.9746668,4.174 L18.5886668,4.174 C18.7566668,4.398 18.9293335,4.63366667 19.1066668,4.881 C19.2840002,5.12833333 19.4590002,5.38033333 19.6316668,5.637 C19.8043335,5.89366667 19.9676668,6.148 20.1216668,6.4 C20.2756668,6.652 20.4180002,6.89 20.5486668,7.114 L20.5486668,7.114 L22.0046668,7.114 Z M20.0726668,13.414 C20.2406668,13.022 20.4086668,12.5973333 20.5766668,12.14 C20.7446668,11.6826667 20.9080002,11.209 21.0666668,10.719 C21.2253335,10.229 21.3746668,9.73433333 21.5146668,9.235 C21.6546668,8.73566667 21.7853335,8.248 21.9066668,7.772 L21.9066668,7.772 L20.5766668,7.772 C20.4646668,8.22 20.3316668,8.696 20.1776668,9.2 C20.0236668,9.704 19.8603335,10.2033333 19.6876668,10.698 C19.5150002,11.1926667 19.3353335,11.6733333 19.1486668,12.14 C18.9620002,12.6066667 18.7800002,13.0313333 18.6026668,13.414 L18.6026668,13.414 L20.0726668,13.414 Z M38.6753337,13.414 C39.3100003,12.546 39.923667,11.5636667 40.5163337,10.467 C41.1090003,9.37033333 41.6200003,8.18266667 42.0493337,6.904 L42.0493337,6.904 L43.7293337,6.904 C44.1680003,8.11733333 44.6603337,9.27933333 45.2063337,10.39 C45.7523337,11.5006667 46.3240003,12.5086667 46.9213337,13.414 L46.9213337,13.414 L48.6013337,13.414 C48.2653337,12.9566667 47.931667,12.4666667 47.6003337,11.944 C47.2690003,11.4213333 46.9540003,10.8823333 46.6553337,10.327 C46.356667,9.77166667 46.0743337,9.20466667 45.8083337,8.626 C45.5423337,8.04733333 45.306667,7.47333333 45.1013337,6.904 L45.1013337,6.904 L48.9793337,6.904 L48.9793337,5.756 L42.3993337,5.756 C42.688667,4.73866667 42.898667,3.67466667 43.0293337,2.564 L43.0293337,2.564 L48.4753337,2.564 L48.4753337,1.402 L37.1213337,1.402 L37.1213337,2.564 L41.6993337,2.564 C41.624667,3.124 41.5290003,3.66766667 41.4123337,4.195 C41.295667,4.72233333 41.1580003,5.24266667 40.9993337,5.756 L40.9993337,5.756 L36.6313337,5.756 L36.6313337,6.904 L40.6073337,6.904 C40.1593337,8.12666667 39.6250003,9.27933333 39.0043337,10.362 C38.383667,11.4446667 37.7093337,12.462 36.9813337,13.414 L36.9813337,13.414 L38.6753337,13.414 Z M57.4880005,13.414 L57.4880005,3.432 L59.2660005,3.432 L59.2660005,2.396 L57.4880005,2.396 L57.4880005,0.786 L56.4660005,0.786 L56.4660005,2.396 L54.4220005,2.396 L54.4220005,3.432 L56.4660005,3.432 L56.4660005,13.414 L57.4880005,13.414 Z M67.0640005,13.414 L67.0640005,12.336 L61.0440005,12.336 L61.0440005,2.242 L66.9240005,2.242 L66.9240005,1.164 L59.8960005,1.164 L59.8960005,13.414 L67.0640005,13.414 Z M62.5700005,11.552 C62.8686672,11.076 63.1603338,10.5953333 63.4450005,10.11 C63.7296672,9.62466667 64.0026672,9.13 64.2640005,8.626 C64.5346672,9.158 64.8030005,9.67366667 65.0690005,10.173 C65.3350005,10.6723333 65.5846672,11.132 65.8180005,11.552 L65.8180005,11.552 L67.0360005,11.552 C66.6906672,10.9546667 66.3290005,10.3083333 65.9510005,9.613 C65.5730005,8.91766667 65.2020005,8.21066667 64.8380005,7.492 C65.1926672,6.764 65.5263338,6.03133333 65.8390005,5.294 C66.1516672,4.55666667 66.4433338,3.80533333 66.7140005,3.04 L66.7140005,3.04 L65.5800005,3.04 C65.3746672,3.6 65.1623338,4.14833333 64.9430005,4.685 C64.7236672,5.22166667 64.4926672,5.756 64.2500005,6.288 C63.9513338,5.672 63.6736672,5.08866667 63.4170005,4.538 C63.1603338,3.98733333 62.9386672,3.488 62.7520005,3.04 L62.7520005,3.04 L61.6180005,3.04 C61.8793338,3.656 62.1896672,4.349 62.5490005,5.119 C62.9083338,5.889 63.2886672,6.67533333 63.6900005,7.478 C63.3540005,8.15 62.9900005,8.822 62.5980005,9.494 C62.2060005,10.166 61.7860005,10.852 61.3380005,11.552 L61.3380005,11.552 L62.5700005,11.552 Z M55.4440005,12.952 C55.5560005,11.3933333 55.6493338,9.86966667 55.7240005,8.381 C55.7986672,6.89233333 55.8500005,5.46666667 55.8780005,4.104 L55.8780005,4.104 L54.8560005,4.104 C54.8280005,5.48533333 54.7720005,6.92266667 54.6880005,8.416 C54.6040005,9.90933333 54.4966672,11.4213333 54.3660005,12.952 L54.3660005,12.952 L55.4440005,12.952 Z M59.3080005,12.476 C59.3080005,11.7853333 59.2986672,11.0713333 59.2800005,10.334 C59.2613338,9.59666667 59.2380005,8.86633333 59.2100005,8.143 C59.1820005,7.41966667 59.1493338,6.715 59.1120005,6.029 C59.0746672,5.343 59.0326672,4.70133333 58.9860005,4.104 L58.9860005,4.104 L58.0060005,4.104 C58.0526672,4.71066667 58.0923338,5.357 58.1250005,6.043 C58.1576672,6.729 58.1856672,7.43133333 58.2090005,8.15 C58.2323338,8.86866667 58.2510005,9.59433333 58.2650005,10.327 C58.2790005,11.0596667 58.2860005,11.776 58.2860005,12.476 L58.2860005,12.476 L59.3080005,12.476 Z" id="之江天枢"></path>
                </g>
            </g>
        </g>
    </g>
</svg>